<svg xmlns="http://www.w3.org/2000/svg" width="44" height="44" fill="none" viewBox="0 0 44 44">
  <path fill="#EA9F53" d="M26.75 27.65c-.767-1.733-2.275-3.108-4.525-4.125A16.877 16.877 0 0 0 15.2 22c-2.433 0-4.775.508-7.025 1.525S4.4 25.917 3.6 27.65h23.15ZM0 30.65c0-3.633 1.55-6.483 4.65-8.55 3.1-2.067 6.617-3.1 10.55-3.1 3.933 0 7.45 1.033 10.55 3.1 3.1 2.067 4.65 4.917 4.65 8.55H0Zm1.5 13.2a1.45 1.45 0 0 1-1.069-.431A1.45 1.45 0 0 1 0 42.35v-1.5h30.4v1.509a1.464 1.464 0 0 1-1.5 1.491H1.5Z"/>
  <path fill="#674727" d="M0 37v-3h30.4v3H0Z"/>
  <path fill="#60ADED" d="M33.1 44v-3h4.3l2.85-29h-19.9L20 9h10.25V0h3v9H43.7l-3.35 32a3.27 3.27 0 0 1-1.133 2.147A3.344 3.344 0 0 1 36.95 44H33.1Z"/>
</svg>
